<svg width="89" height="89" viewBox="0 0 89 89" fill="none" xmlns="http://www.w3.org/2000/svg">
<path d="M80.1 0H8.9C4.53695 0 1 3.53695 1 7.9V79.1C1 83.4631 4.53695 87 8.9 87H80.1C84.4631 87 88 83.4631 88 79.1V7.9C88 3.53695 84.4631 0 80.1 0Z" fill="#2A296E"/>
<path d="M38.1109 31.9L20.0009 35.5499L12.7109 17.6L30.8109 13.95L38.1109 31.9Z" fill="#FBB416"/>
<path d="M47.0406 53.33L28.9306 56.98L21.6406 39.03L39.7406 35.38L47.0406 53.33Z" fill="#46BAEB"/>
<path d="M69.3609 48.97L51.2609 52.62L43.9609 34.67L62.0709 31.02L69.3609 48.97Z" fill="#EE3162"/>
<path d="M78.2906 70.4L60.1906 74.0599L52.8906 56.0999L71.0006 52.45L78.2906 70.4Z" fill="#FBB416"/>
<path d="M44.5 0C19.9173 0 0 19.9173 0 44.5C0 69.0827 19.9173 89 44.5 89C69.0827 89 89 69.0827 89 44.5C89 19.9173 69.0827 0 44.5 0ZM44.5 17.2258C53.2206 17.2258 60.2903 24.2956 60.2903 33.0161C60.2903 41.7367 53.2206 48.8064 44.5 48.8064C35.7794 48.8064 28.7097 41.7367 28.7097 33.0161C28.7097 24.2956 35.7794 17.2258 44.5 17.2258ZM44.5 78.9516C33.9671 78.9516 24.5288 74.1786 18.2127 66.7141C21.5861 60.3621 28.1893 55.9839 35.8871 55.9839C36.3177 55.9839 36.7484 56.0556 37.1611 56.1812C39.4937 56.9349 41.9341 57.4194 44.5 57.4194C47.0659 57.4194 49.5242 56.9349 51.8389 56.1812C52.2516 56.0556 52.6823 55.9839 53.1129 55.9839C60.8107 55.9839 67.4139 60.3621 70.7873 66.7141C64.4712 74.1786 55.0329 78.9516 44.5 78.9516Z" fill="#E3E3E3"/>
</svg>
